<svg version="1.1" id="Layer_1" xmlns="http://www.w3.org/2000/svg" xmlns:xlink="http://www.w3.org/1999/xlink" x="0px" y="0px"
	 width="96px" height="96px" viewBox="0 0 96 96" enable-background="new 0 0 96 96" xml:space="preserve">
<linearGradient id="SVGID_1_" gradientUnits="userSpaceOnUse" x1="24.95" y1="92" x2="24.95" y2="-8.691547e-02">
	<stop  offset="0" style="stop-color:#1F9DCC"/>
	<stop  offset="1" style="stop-color:#6FCFD3"/>
</linearGradient>
<path fill="url(#SVGID_1_)" d="M40.6,44.3c-3.4-4-8.8-6.8-14.6-6.8c-1,0-1.8,0-2.8,0c-0.6,0-1.3,0-1.9,0c-10.3,0-18.6-8-18.6-17.9
	c0-1.8,0.3-3.6,0.8-5.3l8.9,8.7h12.5V11.1l-9-8.6c1.7-0.5,3.5-0.8,5.4-0.8c10.3,0,18.6,8,18.6,17.9c0,0.7,0,1.5-0.1,2.2
	c-0.1,0.8-0.1,1.6-0.1,2.4c0,5.7,3.7,10.8,7.5,14"/>
<linearGradient id="SVGID_2_" gradientUnits="userSpaceOnUse" x1="47.95" y1="92" x2="47.95" y2="-8.691546e-02">
	<stop  offset="0" style="stop-color:#1F9DCC"/>
	<stop  offset="1" style="stop-color:#6FCFD3"/>
</linearGradient>
<path fill="url(#SVGID_2_)" d="M80,22l3.8-1.3l9.5-13.5l-4.2-3.7l-12.7,10l-1.1,3.9L38,54.3L35.7,52c-0.4-0.4-1-0.4-1.3,0L2.9,83.4
	c-0.4,0.4-0.4,1,0,1.3l9.4,9.4c0.4,0.4,1,0.4,1.3,0L45,62.7c0.4-0.4,0.4-1,0-1.3L42.7,59L80,22z"/>
<linearGradient id="SVGID_3_" gradientUnits="userSpaceOnUse" x1="72.15" y1="92" x2="72.15" y2="-8.691546e-02">
	<stop  offset="0" style="stop-color:#1F9DCC"/>
	<stop  offset="1" style="stop-color:#6FCFD3"/>
</linearGradient>
<path fill="url(#SVGID_3_)" d="M90.9,78.3l-32-28.4l-8.1,8.6l24.4,31.1c2.1,2.7,4.8,4.9,8.5,4.9c5.4,0,9.8-4.3,9.8-9.6
	C93.4,82.2,92.9,80.1,90.9,78.3z M83.4,88.9c-2.6,0-4.6-2.1-4.6-4.6s2.1-4.6,4.6-4.6s4.6,2.1,4.6,4.6S85.9,88.9,83.4,88.9z"/>
</svg>
