<?xml version="1.0" standalone="no"?><!DOCTYPE svg PUBLIC "-//W3C//DTD SVG 1.1//EN" "http://www.w3.org/Graphics/SVG/1.1/DTD/svg11.dtd"><svg t="1508919580547" class="icon" style="" viewBox="0 0 1024 1024" version="1.1" xmlns="http://www.w3.org/2000/svg" p-id="3518" xmlns:xlink="http://www.w3.org/1999/xlink" width="64" height="64"><defs><style type="text/css"></style></defs><path d="M542.16809 210.315006l75.420737-75.420736c24.992207-24.992207 65.513086-24.992207 90.505293 0l286.600437 286.600437c24.992207 24.992207 24.992207 65.513086 0 90.505293L874.021174 632.673383 572.33618 934.358377c-24.992207 24.992207-65.513086 24.992207-90.505293 0l-452.526467-452.526467c-24.992207-24.992207-24.992207-65.513086 0-90.505293L330.989413 89.641623c24.992207-24.992207 65.513086-24.992207 90.505294 0l120.673383 120.673383z m159.678746 443.691242l-45.252647-45.252647c-8.330736-8.330736-8.330736-21.837354 0-30.16809l15.084557-15.084557c8.330736-8.330736 21.837354-8.330736 30.16809 0l45.252647 45.252647 36.416397-36.416398-120.674407-120.674406-45.252646 45.252646c-24.992207 24.992207-65.513086 24.992207-90.505294 0l-90.505293-90.505293c-24.992207-24.992207-24.992207-65.513086 0-90.505293l45.252647-45.252647L376.24206 165.06236 104.72618 436.579263l407.27382 407.273821 30.16809-30.16809-105.58985-105.589851c-8.330736-8.330736-8.330736-21.837354 0-30.169113l15.084557-15.084557c8.330736-8.330736 21.837354-8.330736 30.16809 0l105.58985 105.589851 45.252646-45.252647-75.420736-75.420737c-8.330736-8.330736-8.330736-21.837354 0-30.16809l15.084556-15.084557c8.330736-8.330736 21.837354-8.330736 30.16809 0l75.420737 75.420737 23.920806-23.919782z" p-id="3519" fill="#45b5cf"></path></svg>