<svg version="1.1" id="Layer_1" xmlns="http://www.w3.org/2000/svg" xmlns:xlink="http://www.w3.org/1999/xlink" x="0px" y="0px"
	 width="96px" height="96px" viewBox="0 0 96 96" enable-background="new 0 0 96 96" xml:space="preserve">
			<linearGradient id="SVGID_1_" gradientUnits="userSpaceOnUse" x1="79.1265" y1="80" x2="79.1265" y2="16.9921">
				<stop  offset="0" style="stop-color:#1F9DCC"/>
				<stop  offset="1" style="stop-color:#6FCFD3"/>
			</linearGradient>
			<path fill="url(#SVGID_1_)" d="M94.2,64.1c-0.1-1-0.6-3.1-1.9-4.3c-1.5-1.4-5.5-3.2-9.3-5.1c-3-1.5-3.5-2.6-3.7-3.8
				c5.2-0.4,6.5-1.6,6.5-1.6c-2.2-5.6-1.9-10.5-1.9-14c0-3.7-2.6-7.9-8.7-7.9s-8.7,4.2-8.7,7.9c0,3.6,0.2,8.4-1.9,14
				c0,0,1.3,1.1,6.5,1.6c-0.2,1.2-0.7,2.3-3.7,3.8c-1.2,0.6-2.4,1.2-3.6,1.7c3.9,1.9,7.1,3.5,8.9,5.2c2.4,2.2,3.1,5.8,3.2,7.2v0.3
				c0,0.3,0.1,0.7,0.1,1c9.9,0,16.8-0.2,17.8-1.1C94.9,68.3,94.3,65,94.2,64.1z"/>
	<linearGradient id="SVGID_2_" gradientUnits="userSpaceOnUse" x1="47.42" y1="80" x2="47.42" y2="16.9921">
		<stop  offset="0" style="stop-color:#1F9DCC"/>
		<stop  offset="1" style="stop-color:#6FCFD3"/>
	</linearGradient>
	<path fill="url(#SVGID_2_)" d="M71.1,63.2c-2.1-2-7.6-4.4-12.9-7c-4.1-2.1-4.8-3.6-5.1-5.3c7.1-0.6,9-2.2,9-2.2
		c-3-7.8-2.7-14.5-2.7-19.4c0-5.1-3.5-10.9-12-10.9s-12,5.8-12,10.9c0,4.9,0.3,11.6-2.7,19.4c0,0,1.9,1.6,9,2.2
		c-0.3,1.7-1,3.2-5.1,5.3c-5.3,2.6-10.8,5.1-12.9,7c-1.7,1.6-2.4,4.6-2.6,5.9c-0.2,1.2-0.9,5.8,0.5,7c1.5,1.2,11.4,1.5,25.8,1.5
		s24.3-0.3,25.8-1.5s0.7-5.8,0.5-7C73.5,67.8,72.8,64.9,71.1,63.2z"/>
		<linearGradient id="SVGID_3_" gradientUnits="userSpaceOnUse" x1="17.8735" y1="80" x2="17.8735" y2="16.9921">
			<stop  offset="0" style="stop-color:#1F9DCC"/>
			<stop  offset="1" style="stop-color:#6FCFD3"/>
		</linearGradient>
		<path fill="url(#SVGID_3_)" d="M18.8,69.2v-0.3c0.2-1.4,0.9-5.1,3.2-7.2c1.9-1.8,5.7-3.6,10-5.7c0.7-0.3,1.4-0.7,2.1-1
			c-1.1-0.5-2.2-1.1-3.3-1.6c-4.1-2.1-3.9-3.4-4.1-5.3l0,0c0-0.2,0-0.3,0.1-0.4c1.1-0.6,1.3-2.5,1.4-3.6c0.1-0.8,0.5-1.2,0.9-1.9
			s0.8-1.8,1-2.6c0.2-0.6,0.5-1.6,0.3-2.2c-0.1-0.6-0.5-1.1-0.5-1.7c0-0.8,0.1-1.4,0.2-2.2c0.1-1.2,0.1-2.5-0.1-3.7
			c-0.1-0.6-0.4-1.3-0.7-1.8c-0.4-0.7-1-1.3-1.7-1.8c-1.4-0.9-3.4-1.6-5.2-1.6s-3.8,0.6-5.2,1.6c-0.7,0.4-1.3,1.1-1.7,1.8
			c-0.3,0.5-0.6,1.2-0.7,1.8c-0.2,1.2-0.3,2.4-0.1,3.7c0.1,0.8,0.2,1.4,0.2,2.2c0,0.6-0.4,1.1-0.5,1.7c-0.1,0.6,0.2,1.6,0.3,2.2
			c0.2,0.8,0.6,1.9,1,2.6c0.4,0.7,0.8,1.1,0.9,1.9c0.1,1.1,0.3,3,1.4,3.6c0.1,0,0.1,0.2,0.1,0.4c-0.2,1.8,0,3.2-4.1,5.2
			c-4.1,2.1-8.5,4-10.1,5.5c-1.4,1.3-1.9,3.6-2,4.7C1.8,64.4,1.2,68,2.3,69c1,0.8,7.3,1.1,16.5,1.1C18.8,69.7,18.8,69.5,18.8,69.2z"
			/>
</svg>
