<?xml version="1.0" standalone="no"?><!DOCTYPE svg PUBLIC "-//W3C//DTD SVG 1.1//EN" "http://www.w3.org/Graphics/SVG/1.1/DTD/svg11.dtd"><svg t="1508920143181" class="icon" style="" viewBox="0 0 1024 1024" version="1.1" xmlns="http://www.w3.org/2000/svg" p-id="3497" xmlns:xlink="http://www.w3.org/1999/xlink" width="64" height="64"><defs><style type="text/css"></style></defs><path d="M142.137 167.583c0-42.964 35.322-77.913 78.664-77.913h686.597c14.166 0 25.721-11.368 25.721-25.443 0-14.071-11.463-25.443-25.721-25.443H220.892c-71.766 0-130.105 57.785-130.105 128.708v689.021c0 71.015 58.34 128.704 130.105 128.704h712.322V245.499H220.892c-43.433 0-78.755-34.949-78.755-77.916z m739.631 128.708v638.135H220.892c-43.433 0-78.659-34.949-78.659-77.913V270.01c21.902 16.497 49.115 26.281 78.659 26.281h660.876zM400.209 805.345h365.338c14.166 0 25.629-10.626 25.629-23.673 0-13.048-11.463-23.674-25.629-23.674H400.209c-14.167 0-25.63 10.626-25.63 23.674 0.091 13.047 11.554 23.673 25.63 23.673z m0-179.687h365.338c14.166 0 25.629-10.626 25.629-23.673 0-13.051-11.463-23.673-25.629-23.673H400.209c-14.167 0-25.63 10.622-25.63 23.673 0.091 13.047 11.554 23.673 25.63 23.673z m0-170.461h365.338c14.166 0 25.629-10.626 25.629-23.673 0-13.046-11.463-23.672-25.629-23.672H400.209c-14.167 0-25.63 10.626-25.63 23.672 0.091 13.047 11.554 23.673 25.63 23.673zM284.824 833.864c23.486 0 42.5-19.664 42.5-43.896 0-24.233-19.104-43.896-42.5-43.896-23.486 0-42.499 19.663-42.499 43.896 0 24.232 19.013 43.896 42.499 43.896z m622.573-693.586H226.575c-14.166 0-25.721 11.367-25.721 25.442 0 14.071 11.463 25.443 25.721 25.443h680.913c14.167 0 25.726-11.372 25.726-25.443-0.096-14.074-11.559-25.442-25.817-25.442zM284.824 651.379c23.486 0 42.5-19.663 42.5-43.896s-19.104-43.896-42.5-43.896c-23.486 0-42.499 19.663-42.499 43.896-0.091 24.233 19.013 43.896 42.499 43.896z m0-174.561c23.486 0 42.5-19.664 42.5-43.896s-19.104-43.896-42.5-43.896c-23.486 0-42.499 19.663-42.499 43.896-0.091 24.232 19.013 43.896 42.499 43.896z m0 0" fill="#45b5cf" p-id="3498"></path></svg>